<svg width="108" height="108" viewBox="0 0 108 108" fill="none" xmlns="http://www.w3.org/2000/svg">
<rect y="0.000244141" width="108" height="108" rx="54" fill="url(#paint0_linear_307_1192)"/>
<rect x="11" y="11.0002" width="86" height="86" rx="43" fill="white"/>
<path d="M63.078 32.3336H44.9213C37.0347 32.3336 32.333 37.0352 32.333 44.9219V63.0569C32.333 70.9652 37.0347 75.6669 44.9213 75.6669H63.0563C70.943 75.6669 75.6447 70.9652 75.6447 63.0786V44.9219C75.6663 37.0352 70.9647 32.3336 63.078 32.3336ZM52.9813 57.3152L44.9213 65.3752H49.6663C50.5547 65.3752 51.2913 66.1119 51.2913 67.0002C51.2913 67.8886 50.5547 68.6252 49.6663 68.6252H40.9997C40.783 68.6252 40.5663 68.5819 40.3713 68.4952C39.9813 68.3219 39.6563 68.0186 39.483 67.6069C39.418 67.4119 39.3747 67.2169 39.3747 67.0002V58.3336C39.3747 57.4452 40.1113 56.7086 40.9997 56.7086C41.888 56.7086 42.6247 57.4452 42.6247 58.3336V63.0786L50.6847 55.0186C51.313 54.3902 52.353 54.3902 52.9813 55.0186C53.6097 55.6469 53.6097 56.6869 52.9813 57.3152ZM68.6247 49.6669C68.6247 50.5552 67.888 51.2919 66.9997 51.2919C66.1113 51.2919 65.3747 50.5552 65.3747 49.6669V44.9219L57.3147 52.9819C56.9897 53.3069 56.578 53.4586 56.1663 53.4586C55.7547 53.4586 55.343 53.3069 55.018 52.9819C54.3897 52.3536 54.3897 51.3136 55.018 50.6852L63.078 42.6252H58.333C57.4447 42.6252 56.708 41.8886 56.708 41.0002C56.708 40.1119 57.4447 39.3752 58.333 39.3752H66.9997C67.2163 39.3752 67.4113 39.4186 67.628 39.5052C68.018 39.6786 68.343 39.9819 68.5163 40.3936C68.5813 40.5886 68.6247 40.7836 68.6247 41.0002V49.6669Z" fill="url(#paint1_linear_307_1192)"/>
<rect x="11" y="11.0002" width="86" height="86" rx="43" stroke="url(#paint2_linear_307_1192)" stroke-width="2"/>
<defs>
<linearGradient id="paint0_linear_307_1192" x1="6.3245e-07" y1="53.5048" x2="108" y2="53.5048" gradientUnits="userSpaceOnUse">
<stop stop-color="white"/>
<stop offset="1" stop-color="white" stop-opacity="0"/>
</linearGradient>
<linearGradient id="paint1_linear_307_1192" x1="75.6447" y1="75.6669" x2="26.3711" y2="67.2546" gradientUnits="userSpaceOnUse">
<stop stop-color="#00796D"/>
<stop offset="1" stop-color="#38C682"/>
</linearGradient>
<linearGradient id="paint2_linear_307_1192" x1="98" y1="98.0002" x2="-2.11054" y2="80.9002" gradientUnits="userSpaceOnUse">
<stop stop-color="#00796D"/>
<stop offset="1" stop-color="#38C682"/>
</linearGradient>
</defs>
</svg>
