<svg width="108" height="108" viewBox="0 0 108 108" fill="none" xmlns="http://www.w3.org/2000/svg">
<rect y="0.000244141" width="108" height="108" rx="54" fill="url(#paint0_linear_307_1199)"/>
<rect x="11" y="11.0002" width="86" height="86" rx="43" fill="white"/>
<path d="M53.8702 32.7886L48.6485 44.9436H43.4268C42.5602 44.9436 41.7152 45.0086 40.8918 45.1819L43.0585 39.9819L43.1452 39.7869L43.2752 39.4402C43.3402 39.2886 43.3835 39.1586 43.4485 39.0502C45.9619 33.2219 48.7785 31.4019 53.8702 32.7886Z" fill="url(#paint1_linear_307_1199)"/>
<path d="M68.5818 45.5286L68.5385 45.5069C67.2385 45.1386 65.9168 44.9436 64.5735 44.9436H51.0102L55.8852 33.6119L55.9502 33.4602C56.2535 33.5686 56.5785 33.7202 56.9035 33.8286L61.6919 35.8436C64.3569 36.9486 66.2202 38.0969 67.3685 39.4836C67.5635 39.7436 67.7369 39.9819 67.9102 40.2636C68.1052 40.5669 68.2569 40.8702 68.3435 41.1952C68.4302 41.3902 68.4952 41.5636 68.5385 41.7586C68.8635 42.8636 68.8852 44.1202 68.5818 45.5286Z" fill="url(#paint2_linear_307_1199)"/>
<path d="M55.1269 66.2636H55.6685C56.3185 66.2636 56.8602 65.6786 56.8602 64.9636C56.8602 64.0536 56.6002 63.9236 56.0368 63.7069L55.1269 63.3819V66.2636Z" fill="url(#paint3_linear_307_1199)"/>
<path d="M67.6285 48.6269C66.6535 48.3452 65.6352 48.1936 64.5735 48.1936H43.4268C41.9535 48.1936 40.5668 48.4752 39.2668 49.0386C35.4968 50.6636 32.8535 54.4119 32.8535 58.7669V62.9919C32.8535 63.5119 32.8968 64.0102 32.9618 64.5302C33.4385 71.4202 37.1218 75.1036 44.0118 75.5586C44.5102 75.6236 45.0085 75.6669 45.5502 75.6669H62.4502C70.4669 75.6669 74.6918 71.8536 75.1035 64.2702C75.1252 63.8586 75.1469 63.4252 75.1469 62.9919V58.7669C75.1469 53.9786 71.9619 49.9486 67.6285 48.6269ZM56.7735 61.5836C57.7702 61.9302 59.1135 62.6669 59.1135 64.9636C59.1135 66.9352 57.5752 68.5169 55.6685 68.5169H55.1269V68.9936C55.1269 69.6219 54.6285 70.1202 54.0002 70.1202C53.3719 70.1202 52.8735 69.6219 52.8735 68.9936V68.5169H52.6785C50.5985 68.5169 48.8869 66.7619 48.8869 64.5952C48.8869 63.9669 49.3852 63.4686 50.0135 63.4686C50.6418 63.4686 51.1402 63.9669 51.1402 64.5952C51.1402 65.5052 51.8335 66.2636 52.6785 66.2636H52.8735V62.6019L51.2269 62.0169C50.2302 61.6702 48.8869 60.9336 48.8869 58.6369C48.8869 56.6652 50.4252 55.0836 52.3319 55.0836H52.8735V54.6069C52.8735 53.9786 53.3719 53.4802 54.0002 53.4802C54.6285 53.4802 55.1269 53.9786 55.1269 54.6069V55.0836H55.3218C57.4018 55.0836 59.1135 56.8386 59.1135 59.0052C59.1135 59.6336 58.6152 60.1319 57.9869 60.1319C57.3585 60.1319 56.8602 59.6336 56.8602 59.0052C56.8602 58.0952 56.1668 57.3369 55.3218 57.3369H55.1269V60.9986L56.7735 61.5836Z" fill="url(#paint4_linear_307_1199)"/>
<path d="M51.1402 58.6369C51.1402 59.5469 51.4002 59.6769 51.9635 59.8936L52.8735 60.2186V57.3369H52.3319C51.6602 57.3369 51.1402 57.9219 51.1402 58.6369Z" fill="url(#paint5_linear_307_1199)"/>
<rect x="11" y="11.0002" width="86" height="86" rx="43" stroke="url(#paint6_linear_307_1199)" stroke-width="2"/>
<defs>
<linearGradient id="paint0_linear_307_1199" x1="6.3245e-07" y1="53.5048" x2="108" y2="53.5048" gradientUnits="userSpaceOnUse">
<stop stop-color="white"/>
<stop offset="1" stop-color="white" stop-opacity="0"/>
</linearGradient>
<linearGradient id="paint1_linear_307_1199" x1="75.1468" y1="75.6669" x2="26.9691" y2="67.6327" gradientUnits="userSpaceOnUse">
<stop stop-color="#00796D"/>
<stop offset="1" stop-color="#38C682"/>
</linearGradient>
<linearGradient id="paint2_linear_307_1199" x1="75.1468" y1="75.6669" x2="26.9691" y2="67.6327" gradientUnits="userSpaceOnUse">
<stop stop-color="#00796D"/>
<stop offset="1" stop-color="#38C682"/>
</linearGradient>
<linearGradient id="paint3_linear_307_1199" x1="75.1468" y1="75.6669" x2="26.9691" y2="67.6327" gradientUnits="userSpaceOnUse">
<stop stop-color="#00796D"/>
<stop offset="1" stop-color="#38C682"/>
</linearGradient>
<linearGradient id="paint4_linear_307_1199" x1="75.1468" y1="75.6669" x2="26.9691" y2="67.6327" gradientUnits="userSpaceOnUse">
<stop stop-color="#00796D"/>
<stop offset="1" stop-color="#38C682"/>
</linearGradient>
<linearGradient id="paint5_linear_307_1199" x1="75.1468" y1="75.6669" x2="26.9691" y2="67.6327" gradientUnits="userSpaceOnUse">
<stop stop-color="#00796D"/>
<stop offset="1" stop-color="#38C682"/>
</linearGradient>
<linearGradient id="paint6_linear_307_1199" x1="98" y1="98.0002" x2="-2.11054" y2="80.9002" gradientUnits="userSpaceOnUse">
<stop stop-color="#00796D"/>
<stop offset="1" stop-color="#38C682"/>
</linearGradient>
</defs>
</svg>
