<svg width="108" height="108" viewBox="0 0 108 108" fill="none" xmlns="http://www.w3.org/2000/svg">
<rect y="0.000244141" width="108" height="108" rx="54" fill="url(#paint0_linear_307_1213)"/>
<rect x="11" y="11.0002" width="86" height="86" rx="43" fill="white"/>
<path d="M47.5004 32.3336C41.8237 32.3336 37.2087 36.9486 37.2087 42.6252C37.2087 48.1936 41.5637 52.7002 47.2404 52.8952C47.4137 52.8736 47.5871 52.8736 47.7171 52.8952C47.7604 52.8952 47.7821 52.8952 47.8254 52.8952C47.8471 52.8952 47.8471 52.8952 47.8687 52.8952C53.4154 52.7002 57.7704 48.1936 57.7921 42.6252C57.7921 36.9486 53.1771 32.3336 47.5004 32.3336Z" fill="url(#paint1_linear_307_1213)"/>
<path d="M58.5071 58.6586C52.4621 54.6286 42.6037 54.6286 36.5154 58.6586C33.7637 60.5002 32.2471 62.9919 32.2471 65.6569C32.2471 68.3219 33.7637 70.7919 36.4937 72.6119C39.5271 74.6486 43.5137 75.6669 47.5004 75.6669C51.4871 75.6669 55.4737 74.6486 58.5071 72.6119C61.2371 70.7702 62.7537 68.3002 62.7537 65.6136C62.7321 62.9486 61.2371 60.4786 58.5071 58.6586Z" fill="url(#paint2_linear_307_1213)"/>
<path d="M71.3121 43.9036C71.6587 48.1069 68.6687 51.7902 64.5304 52.2886C64.5087 52.2886 64.5087 52.2886 64.4871 52.2886H64.4221C64.2921 52.2886 64.1621 52.2886 64.0537 52.3319C61.9521 52.4402 60.0237 51.7686 58.5721 50.5336C60.8037 48.5402 62.0821 45.5502 61.8221 42.3002C61.6704 40.5452 61.0637 38.9419 60.1537 37.5769C60.9771 37.1652 61.9304 36.9052 62.9054 36.8186C67.1521 36.4502 70.9437 39.6136 71.3121 43.9036Z" fill="url(#paint3_linear_307_1213)"/>
<path d="M75.6454 63.9452C75.4721 66.0469 74.1287 67.8669 71.8754 69.1019C69.7087 70.2936 66.9787 70.8569 64.2704 70.7919C65.8304 69.3836 66.7404 67.6286 66.9137 65.7652C67.1304 63.0786 65.8521 60.5002 63.2954 58.4419C61.8437 57.2936 60.1537 56.3836 58.3121 55.7119C63.1004 54.3252 69.1237 55.2569 72.8287 58.2469C74.8221 59.8502 75.8404 61.8652 75.6454 63.9452Z" fill="url(#paint4_linear_307_1213)"/>
<rect x="11" y="11.0002" width="86" height="86" rx="43" stroke="url(#paint5_linear_307_1213)" stroke-width="2"/>
<defs>
<linearGradient id="paint0_linear_307_1213" x1="6.3245e-07" y1="53.5048" x2="108" y2="53.5048" gradientUnits="userSpaceOnUse">
<stop stop-color="white"/>
<stop offset="1" stop-color="white" stop-opacity="0"/>
</linearGradient>
<linearGradient id="paint1_linear_307_1213" x1="75.669" y1="75.6669" x2="26.2771" y2="67.2129" gradientUnits="userSpaceOnUse">
<stop stop-color="#00796D"/>
<stop offset="1" stop-color="#38C682"/>
</linearGradient>
<linearGradient id="paint2_linear_307_1213" x1="75.669" y1="75.6669" x2="26.2771" y2="67.2129" gradientUnits="userSpaceOnUse">
<stop stop-color="#00796D"/>
<stop offset="1" stop-color="#38C682"/>
</linearGradient>
<linearGradient id="paint3_linear_307_1213" x1="75.669" y1="75.6669" x2="26.2771" y2="67.2129" gradientUnits="userSpaceOnUse">
<stop stop-color="#00796D"/>
<stop offset="1" stop-color="#38C682"/>
</linearGradient>
<linearGradient id="paint4_linear_307_1213" x1="75.669" y1="75.6669" x2="26.2771" y2="67.2129" gradientUnits="userSpaceOnUse">
<stop stop-color="#00796D"/>
<stop offset="1" stop-color="#38C682"/>
</linearGradient>
<linearGradient id="paint5_linear_307_1213" x1="98" y1="98.0002" x2="-2.11054" y2="80.9002" gradientUnits="userSpaceOnUse">
<stop stop-color="#00796D"/>
<stop offset="1" stop-color="#38C682"/>
</linearGradient>
</defs>
</svg>
