<svg width="1441" height="1145" viewBox="0 0 1441 1145" fill="none" xmlns="http://www.w3.org/2000/svg">
<path d="M1.48929 0.5L1.48924 1144.5M181.303 0.5L181.303 1144.5M361.117 0.5L361.117 1144.5M540.931 0.5L540.931 1144.5M720.745 0.5L720.745 1144.5M900.558 0.5L900.558 1144.5M1080.37 0.5L1080.37 1144.5M1260.19 0.5L1260.19 1144.5M1440 0.5L1440 1144.5M1 1112.51H1439.51M1 932.533L1439.51 932.533M1 752.553L1439.51 752.553M1 572.573L1439.51 572.573M1 392.592L1439.51 392.592M1 212.612L1439.51 212.612M1 32.6317L1439.51 32.6318" stroke="url(#paint0_linear_147_1114)" stroke-opacity="0.3"/>
<defs>
<linearGradient id="paint0_linear_147_1114" x1="613" y1="1240.5" x2="461" y2="60.0001" gradientUnits="userSpaceOnUse">
<stop stop-color="white"/>
<stop offset="1" stop-color="white" stop-opacity="0"/>
</linearGradient>
</defs>
</svg>
