<svg width="134" height="24" viewBox="0 0 134 24" fill="none" xmlns="http://www.w3.org/2000/svg">
<g clip-path="url(#clip0_165_625)">
<path fill-rule="evenodd" clip-rule="evenodd" d="M19.3796 4.75027C19.945 3.80139 19.5079 3.03217 18.4034 3.03217H14.6387C13.5341 3.03217 12.1803 3.80139 11.6149 4.75027L1.16793 22.2821C0.602513 23.231 1.03958 24.0002 2.14415 24.0002H11.5559C12.6605 24.0002 14.0143 23.231 14.5797 22.2821L18.0444 16.4677C18.6098 15.5188 18.1728 14.7496 17.0682 14.7496H15.4211C14.3166 14.7496 13.8795 13.9804 14.4449 13.0315L19.3796 4.75027Z" fill="url(#paint0_linear_165_625)"/>
<rect width="12" height="14.8235" rx="1" transform="matrix(1 0 -0.511893 0.859049 24.3271 0.000244141)" fill="url(#paint1_linear_165_625)"/>
<rect width="9.17647" height="9.17647" rx="1" transform="matrix(1 0 -0.511893 0.859049 21.3027 14.5535)" fill="#F5921E"/>
</g>
<path d="M47.5683 19.0002H44.2728L51.7089 4.45479H55.672L58.2714 19.0002H54.9759L53.2075 7.77865H53.0938L47.5683 19.0002ZM48.3211 13.2829H56.1052L55.6933 15.6835H47.9092L48.3211 13.2829ZM63.6904 23.3184C62.7056 23.3184 61.8841 23.1835 61.2259 22.9136C60.5725 22.6484 60.0754 22.2862 59.7345 21.8269C59.3983 21.3677 59.2136 20.8516 59.1805 20.2787L62.0498 19.9022C62.1019 20.1248 62.2013 20.3307 62.3481 20.5201C62.4996 20.7095 62.7151 20.861 62.9944 20.9747C63.2785 21.0883 63.6454 21.1451 64.0953 21.1451C64.7534 21.1451 65.3263 20.9841 65.814 20.6622C66.3017 20.3449 66.6024 19.8123 66.716 19.0642L67.0427 17.0684H66.9149C66.7349 17.3715 66.4887 17.6579 66.1762 17.9278C65.8685 18.1977 65.492 18.4179 65.047 18.5883C64.6066 18.7588 64.0976 18.844 63.52 18.844C62.6961 18.844 61.9811 18.6546 61.3751 18.2758C60.7738 17.8923 60.3382 17.3075 60.0683 16.5216C59.8031 15.7308 59.77 14.7318 59.9688 13.5244C60.1772 12.2886 60.5512 11.2564 61.091 10.4278C61.6308 9.5992 62.27 8.97894 63.0086 8.56701C63.7472 8.15507 64.5167 7.94911 65.3169 7.94911C65.9276 7.94911 66.4201 8.05327 66.7941 8.26161C67.1729 8.46521 67.4641 8.72089 67.6677 9.02865C67.8713 9.33168 68.0157 9.62998 68.1009 9.92354H68.2217L68.52 8.09115H71.5242L69.6919 19.1068C69.5451 20.0395 69.1923 20.8161 68.6336 21.4363C68.0796 22.0613 67.3765 22.5301 66.5242 22.8426C65.672 23.1598 64.7274 23.3184 63.6904 23.3184ZM64.8268 16.5713C65.3097 16.5713 65.743 16.4505 66.1265 16.2091C66.5148 15.9628 66.8391 15.6125 67.0995 15.1579C67.3599 14.6986 67.5422 14.1494 67.6464 13.5102C67.7506 12.871 67.7482 12.317 67.6393 11.8483C67.5351 11.3748 67.3315 11.0078 67.0285 10.7474C66.7302 10.487 66.3372 10.3568 65.8495 10.3568C65.3476 10.3568 64.9073 10.4917 64.5285 10.7616C64.1497 11.0268 63.8348 11.3961 63.5839 11.8696C63.3377 12.343 63.1649 12.8899 63.0654 13.5102C62.9613 14.1399 62.9565 14.6844 63.0512 15.1437C63.1507 15.5983 63.3472 15.951 63.6407 16.2019C63.9343 16.4482 64.3296 16.5713 64.8268 16.5713ZM77.0569 19.2133C75.9395 19.2133 75.0138 18.986 74.2799 18.5315C73.546 18.0722 73.0299 17.4235 72.7316 16.5855C72.4381 15.7427 72.3883 14.746 72.5825 13.5954C72.7719 12.4733 73.153 11.4884 73.7259 10.6409C74.3036 9.79333 75.028 9.13282 75.8992 8.65933C76.7704 8.18585 77.7411 7.94911 78.8112 7.94911C79.5309 7.94911 80.1819 8.06511 80.7643 8.29712C81.3514 8.52439 81.8391 8.87004 82.2274 9.33405C82.6156 9.79333 82.8808 10.3686 83.0228 11.0599C83.1696 11.7512 83.1672 12.5608 83.0157 13.4889L82.8808 14.3198H73.6762L73.9674 12.4448H80.3311C80.4021 12.0092 80.3737 11.6234 80.2458 11.2872C80.118 10.951 79.9049 10.6882 79.6066 10.4988C79.3083 10.3047 78.9414 10.2076 78.5058 10.2076C78.0607 10.2076 77.644 10.3165 77.2558 10.5343C76.8675 10.7521 76.5408 11.0386 76.2757 11.3937C76.0152 11.7441 75.8472 12.1252 75.7714 12.5372L75.4376 14.398C75.3429 14.9709 75.3618 15.4467 75.4944 15.8255C75.6317 16.2043 75.8685 16.4884 76.2046 16.6778C76.5408 16.8625 76.9669 16.9548 77.483 16.9548C77.8192 16.9548 78.1341 16.9074 78.4276 16.8127C78.7259 16.718 78.9911 16.5784 79.2231 16.3937C79.4551 16.2043 79.6445 15.9699 79.7913 15.6906L82.5541 15.8752C82.2984 16.5476 81.9101 17.1347 81.3893 17.6366C80.8685 18.1338 80.2411 18.522 79.5072 18.8014C78.778 19.076 77.9613 19.2133 77.0569 19.2133ZM88.1773 12.6934L87.1262 19.0002H84.1077L85.9259 8.09115H88.8023L88.4898 10.0159H88.6105C88.9562 9.37666 89.4439 8.8724 90.0736 8.50308C90.7081 8.13377 91.4301 7.94911 92.2398 7.94911C92.9974 7.94911 93.6295 8.11483 94.1361 8.44627C94.6475 8.77771 95.0073 9.24882 95.2156 9.85962C95.4287 10.4704 95.4642 11.2019 95.3222 12.0542L94.1574 19.0002H91.1318L92.2043 12.594C92.3132 11.9264 92.228 11.4055 91.9486 11.0315C91.674 10.6527 91.2313 10.4633 90.6205 10.4633C90.2133 10.4633 89.8392 10.5509 89.4983 10.7261C89.1574 10.9013 88.8709 11.157 88.6389 11.4931C88.4117 11.8246 88.2578 12.2247 88.1773 12.6934ZM101.471 19.2133C100.358 19.2133 99.4374 18.9766 98.7082 18.5031C97.979 18.0249 97.4653 17.362 97.167 16.5144C96.8734 15.6622 96.819 14.6702 97.0036 13.5386C97.1836 12.4212 97.5576 11.4434 98.1258 10.6054C98.694 9.76729 99.416 9.11625 100.292 8.65223C101.168 8.18348 102.155 7.94911 103.254 7.94911C104.362 7.94911 105.28 8.18822 106.009 8.66644C106.738 9.13992 107.252 9.8028 107.551 10.6551C107.849 11.5073 107.906 12.4993 107.721 13.6309C107.536 14.7436 107.158 15.719 106.585 16.5571C106.012 17.3951 105.29 18.0485 104.418 18.5173C103.547 18.9813 102.565 19.2133 101.471 19.2133ZM101.769 16.8696C102.281 16.8696 102.733 16.7251 103.126 16.4363C103.524 16.1428 103.853 15.745 104.113 15.2431C104.378 14.7365 104.563 14.1636 104.667 13.5244C104.771 12.8947 104.778 12.3359 104.688 11.8483C104.598 11.3558 104.409 10.9676 104.12 10.6835C103.836 10.3994 103.445 10.2573 102.948 10.2573C102.437 10.2573 101.982 10.4041 101.585 10.6977C101.187 10.9865 100.858 11.3842 100.597 11.8909C100.337 12.3975 100.155 12.9728 100.051 13.6167C99.9511 14.2417 99.944 14.8004 100.029 15.2929C100.114 15.7805 100.301 16.1664 100.59 16.4505C100.879 16.7299 101.272 16.8696 101.769 16.8696ZM112.884 12.6934L111.833 19.0002H108.815L110.633 8.09115H113.509L113.197 10.0159H113.318C113.663 9.37666 114.151 8.8724 114.781 8.50308C115.415 8.13377 116.137 7.94911 116.947 7.94911C117.704 7.94911 118.337 8.11483 118.843 8.44627C119.354 8.77771 119.714 9.24882 119.923 9.85962C120.136 10.4704 120.171 11.2019 120.029 12.0542L118.864 19.0002H115.839L116.911 12.594C117.02 11.9264 116.935 11.4055 116.656 11.0315C116.381 10.6527 115.938 10.4633 115.328 10.4633C114.92 10.4633 114.546 10.5509 114.205 10.7261C113.864 10.9013 113.578 11.157 113.346 11.4931C113.119 11.8246 112.965 12.2247 112.884 12.6934ZM126.178 19.2133C125.061 19.2133 124.135 18.986 123.401 18.5315C122.667 18.0722 122.151 17.4235 121.853 16.5855C121.559 15.7427 121.509 14.746 121.704 13.5954C121.893 12.4733 122.274 11.4884 122.847 10.6409C123.425 9.79333 124.149 9.13282 125.02 8.65933C125.892 8.18585 126.862 7.94911 127.932 7.94911C128.652 7.94911 129.303 8.06511 129.885 8.29712C130.473 8.52439 130.96 8.87004 131.348 9.33405C131.737 9.79333 132.002 10.3686 132.144 11.0599C132.291 11.7512 132.288 12.5608 132.137 13.4889L132.002 14.3198H122.797L123.089 12.4448H129.452C129.523 12.0092 129.495 11.6234 129.367 11.2872C129.239 10.951 129.026 10.6882 128.728 10.4988C128.429 10.3047 128.062 10.2076 127.627 10.2076C127.182 10.2076 126.765 10.3165 126.377 10.5343C125.989 10.7521 125.662 11.0386 125.397 11.3937C125.136 11.7441 124.968 12.1252 124.892 12.5372L124.559 14.398C124.464 14.9709 124.483 15.4467 124.616 15.8255C124.753 16.2043 124.99 16.4884 125.326 16.6778C125.662 16.8625 126.088 16.9548 126.604 16.9548C126.94 16.9548 127.255 16.9074 127.549 16.8127C127.847 16.718 128.112 16.5784 128.344 16.3937C128.576 16.2043 128.766 15.9699 128.912 15.6906L131.675 15.8752C131.419 16.5476 131.031 17.1347 130.51 17.6366C129.99 18.1338 129.362 18.522 128.628 18.8014C127.899 19.076 127.082 19.2133 126.178 19.2133Z" fill="white"/>
<defs>
<linearGradient id="paint0_linear_165_625" x1="13.5559" y1="24.0002" x2="3.06805" y2="16.6048" gradientUnits="userSpaceOnUse">
<stop stop-color="#00796D"/>
<stop offset="1" stop-color="#38C682"/>
</linearGradient>
<linearGradient id="paint1_linear_165_625" x1="12" y1="14.8235" x2="-1.78614" y2="12.9172" gradientUnits="userSpaceOnUse">
<stop stop-color="#00796D"/>
<stop offset="1" stop-color="#38C682"/>
</linearGradient>
<clipPath id="clip0_165_625">
<rect width="36.7059" height="24" fill="white" transform="translate(0 0.000244141)"/>
</clipPath>
</defs>
</svg>
