<svg width="170" height="34" viewBox="0 0 170 34" fill="none" xmlns="http://www.w3.org/2000/svg">
<g clip-path="url(#clip0_143_722)">
<path fill-rule="evenodd" clip-rule="evenodd" d="M27.8805 6.01357C28.4459 5.06469 28.0089 4.29547 26.9043 4.29547H19.9043C18.7997 4.29547 17.4459 5.06469 16.8805 6.01357L1.22751 32.2821C0.662087 33.231 1.09915 34.0002 2.20372 34.0002H17.2037C18.3083 34.0002 19.6621 33.231 20.2275 32.2821L25.989 22.6133C26.5544 21.6644 26.1174 20.8952 25.0128 20.8952H21.0128C19.9082 20.8952 19.4712 20.126 20.0366 19.1771L27.8805 6.01357Z" fill="url(#paint0_linear_143_722)"/>
<rect width="17" height="21" rx="1" transform="matrix(1 0 -0.511893 0.859049 34.4639 0.000244141)" fill="url(#paint1_linear_143_722)"/>
<rect width="13" height="13" rx="1" transform="matrix(1 0 -0.511893 0.859049 30.1787 20.6174)" fill="#F5921E"/>
</g>
<path d="M67.4347 25.5002H63.4801L72.4034 8.0457H77.1591L80.2784 25.5002H76.3239L74.2017 12.0343H74.0653L67.4347 25.5002ZM68.3381 18.6394H77.679L77.1847 21.5201H67.8438L68.3381 18.6394ZM86.7812 30.6821C85.5994 30.6821 84.6136 30.5201 83.8239 30.1963C83.0398 29.8781 82.4432 29.4434 82.0341 28.8923C81.6307 28.3412 81.4091 27.7218 81.3693 27.0343L84.8125 26.5826C84.875 26.8497 84.9943 27.0968 85.1705 27.3241C85.3523 27.5514 85.6108 27.7332 85.946 27.8696C86.2869 28.0059 86.7273 28.0741 87.267 28.0741C88.0568 28.0741 88.7443 27.8809 89.3295 27.4946C89.9148 27.1139 90.2756 26.4747 90.4119 25.5769L90.804 23.1821H90.6506C90.4347 23.5457 90.1392 23.8894 89.7642 24.2133C89.3949 24.5372 88.9432 24.8014 88.4091 25.0059C87.8807 25.2105 87.2699 25.3127 86.5767 25.3127C85.5881 25.3127 84.7301 25.0855 84.0028 24.6309C83.2813 24.1707 82.7585 23.469 82.4347 22.5258C82.1165 21.5769 82.0767 20.3781 82.3153 18.9292C82.5653 17.4463 83.0142 16.2076 83.6619 15.2133C84.3097 14.219 85.0767 13.4747 85.9631 12.9804C86.8494 12.486 87.7727 12.2389 88.733 12.2389C89.4659 12.2389 90.0568 12.3639 90.5057 12.6139C90.9602 12.8582 91.3097 13.165 91.554 13.5343C91.7983 13.898 91.9716 14.2559 92.0739 14.6082H92.2188L92.5767 12.4093H96.1818L93.983 25.6281C93.8068 26.7474 93.3835 27.6792 92.7131 28.4235C92.0483 29.1735 91.2045 29.736 90.1818 30.111C89.1591 30.4917 88.0256 30.6821 86.7812 30.6821ZM88.1449 22.5855C88.7244 22.5855 89.2443 22.4406 89.7045 22.1508C90.1705 21.8554 90.5597 21.4349 90.8722 20.8894C91.1847 20.3383 91.4034 19.6792 91.5284 18.9122C91.6534 18.1451 91.6506 17.4804 91.5199 16.9179C91.3949 16.3497 91.1506 15.9093 90.7869 15.5968C90.429 15.2843 89.9574 15.1281 89.3722 15.1281C88.7699 15.1281 88.2415 15.29 87.7869 15.6139C87.3324 15.9321 86.9545 16.3752 86.6534 16.9434C86.358 17.5116 86.1506 18.1679 86.0312 18.9122C85.9062 19.6679 85.9006 20.3213 86.0142 20.8724C86.1335 21.4179 86.3693 21.8412 86.7216 22.1423C87.0739 22.4377 87.5483 22.5855 88.1449 22.5855ZM102.821 25.7559C101.48 25.7559 100.369 25.4832 99.4886 24.9377C98.608 24.3866 97.9886 23.6082 97.6307 22.6025C97.2784 21.5912 97.2188 20.3951 97.4517 19.0144C97.679 17.6679 98.1364 16.486 98.8239 15.469C99.517 14.4519 100.386 13.6593 101.432 13.0912C102.477 12.523 103.642 12.2389 104.926 12.2389C105.79 12.2389 106.571 12.3781 107.27 12.6565C107.974 12.9292 108.56 13.344 109.026 13.9008C109.491 14.4519 109.81 15.1423 109.98 15.9718C110.156 16.8014 110.153 17.773 109.972 18.8866L109.81 19.8838H98.7642L99.1136 17.6338H106.75C106.835 17.111 106.801 16.648 106.648 16.2446C106.494 15.8412 106.239 15.5258 105.881 15.2985C105.523 15.0656 105.082 14.9491 104.56 14.9491C104.026 14.9491 103.526 15.0798 103.06 15.3412C102.594 15.6025 102.202 15.9463 101.884 16.3724C101.571 16.7929 101.369 17.2502 101.278 17.7446L100.878 19.9775C100.764 20.665 100.787 21.236 100.946 21.6906C101.111 22.1451 101.395 22.486 101.798 22.7133C102.202 22.9349 102.713 23.0457 103.332 23.0457C103.736 23.0457 104.114 22.9889 104.466 22.8752C104.824 22.7616 105.142 22.594 105.42 22.3724C105.699 22.1451 105.926 21.8639 106.102 21.5287L109.418 21.7502C109.111 22.5571 108.645 23.2616 108.02 23.8639C107.395 24.4605 106.642 24.9264 105.761 25.2616C104.886 25.5912 103.906 25.7559 102.821 25.7559ZM116.165 17.9321L114.904 25.5002H111.282L113.464 12.4093H116.915L116.54 14.719H116.685C117.1 13.9519 117.685 13.3468 118.441 12.9037C119.202 12.4605 120.069 12.2389 121.04 12.2389C121.95 12.2389 122.708 12.4377 123.316 12.8355C123.93 13.2332 124.362 13.7985 124.612 14.5315C124.867 15.2644 124.91 16.1423 124.739 17.165L123.342 25.5002H119.711L120.998 17.8127C121.129 17.0116 121.026 16.3866 120.691 15.9377C120.362 15.4832 119.83 15.2559 119.097 15.2559C118.609 15.2559 118.16 15.361 117.751 15.5713C117.342 15.7815 116.998 16.0883 116.719 16.4917C116.447 16.8894 116.262 17.3696 116.165 17.9321ZM132.118 25.7559C130.783 25.7559 129.678 25.4718 128.803 24.9037C127.928 24.3298 127.311 23.5343 126.953 22.5173C126.601 21.4946 126.536 20.3042 126.757 18.9463C126.973 17.6054 127.422 16.4321 128.104 15.4264C128.786 14.4207 129.652 13.6394 130.703 13.0826C131.754 12.5201 132.939 12.2389 134.257 12.2389C135.587 12.2389 136.689 12.5258 137.564 13.0997C138.439 13.6679 139.055 14.4633 139.413 15.486C139.771 16.5088 139.839 17.6991 139.618 19.0571C139.396 20.3923 138.942 21.5627 138.254 22.5684C137.567 23.5741 136.7 24.3582 135.655 24.9207C134.609 25.4775 133.43 25.7559 132.118 25.7559ZM132.476 22.9434C133.089 22.9434 133.632 22.7701 134.104 22.4235C134.581 22.0713 134.976 21.594 135.288 20.9917C135.607 20.3838 135.828 19.6963 135.953 18.9292C136.078 18.1735 136.087 17.5031 135.979 16.9179C135.871 16.3269 135.643 15.861 135.297 15.5201C134.956 15.1792 134.487 15.0088 133.891 15.0088C133.277 15.0088 132.732 15.1849 132.254 15.5372C131.777 15.8838 131.382 16.361 131.07 16.969C130.757 17.5769 130.538 18.2673 130.413 19.04C130.294 19.79 130.286 20.4605 130.388 21.0514C130.49 21.6366 130.714 22.0997 131.061 22.4406C131.408 22.7758 131.879 22.9434 132.476 22.9434ZM145.814 17.9321L144.553 25.5002H140.93L143.112 12.4093H146.564L146.189 14.719H146.334C146.749 13.9519 147.334 13.3468 148.089 12.9037C148.851 12.4605 149.717 12.2389 150.689 12.2389C151.598 12.2389 152.357 12.4377 152.964 12.8355C153.578 13.2332 154.01 13.7985 154.26 14.5315C154.516 15.2644 154.558 16.1423 154.388 17.165L152.99 25.5002H149.359L150.646 17.8127C150.777 17.0116 150.675 16.3866 150.339 15.9377C150.01 15.4832 149.479 15.2559 148.746 15.2559C148.257 15.2559 147.808 15.361 147.399 15.5713C146.99 15.7815 146.646 16.0883 146.368 16.4917C146.095 16.8894 145.911 17.3696 145.814 17.9321ZM161.766 25.7559C160.425 25.7559 159.315 25.4832 158.434 24.9377C157.553 24.3866 156.934 23.6082 156.576 22.6025C156.224 21.5912 156.164 20.3951 156.397 19.0144C156.624 17.6679 157.082 16.486 157.769 15.469C158.462 14.4519 159.332 13.6593 160.377 13.0912C161.423 12.523 162.587 12.2389 163.871 12.2389C164.735 12.2389 165.516 12.3781 166.215 12.6565C166.92 12.9292 167.505 13.344 167.971 13.9008C168.437 14.4519 168.755 15.1423 168.925 15.9718C169.102 16.8014 169.099 17.773 168.917 18.8866L168.755 19.8838H157.71L158.059 17.6338H165.695C165.781 17.111 165.746 16.648 165.593 16.2446C165.44 15.8412 165.184 15.5258 164.826 15.2985C164.468 15.0656 164.028 14.9491 163.505 14.9491C162.971 14.9491 162.471 15.0798 162.005 15.3412C161.539 15.6025 161.147 15.9463 160.829 16.3724C160.516 16.7929 160.315 17.2502 160.224 17.7446L159.823 19.9775C159.71 20.665 159.732 21.236 159.891 21.6906C160.056 22.1451 160.34 22.486 160.744 22.7133C161.147 22.9349 161.658 23.0457 162.278 23.0457C162.681 23.0457 163.059 22.9889 163.411 22.8752C163.769 22.7616 164.087 22.594 164.366 22.3724C164.644 22.1451 164.871 21.8639 165.048 21.5287L168.363 21.7502C168.056 22.5571 167.59 23.2616 166.965 23.8639C166.34 24.4605 165.587 24.9264 164.707 25.2616C163.832 25.5912 162.852 25.7559 161.766 25.7559Z" fill="white"/>
<defs>
<linearGradient id="paint0_linear_143_722" x1="19.2037" y1="34.0002" x2="4.34592" y2="23.5234" gradientUnits="userSpaceOnUse">
<stop stop-color="#00796D"/>
<stop offset="1" stop-color="#38C682"/>
</linearGradient>
<linearGradient id="paint1_linear_143_722" x1="17" y1="21" x2="-2.53037" y2="18.2994" gradientUnits="userSpaceOnUse">
<stop stop-color="#00796D"/>
<stop offset="1" stop-color="#38C682"/>
</linearGradient>
<clipPath id="clip0_143_722">
<rect width="52" height="34" fill="white" transform="translate(0 0.000244141)"/>
</clipPath>
</defs>
</svg>
